<?xml version="1.0" encoding="iso-8859-1"?>
<!-- Generator: Adobe Illustrator 16.0.0, SVG Export Plug-In . SVG Version: 6.00 Build 0)  -->
<!DOCTYPE svg PUBLIC "-//W3C//DTD SVG 1.1//EN" "http://www.w3.org/Graphics/SVG/1.1/DTD/svg11.dtd">
<svg version="1.1" id="Capa_1" xmlns="http://www.w3.org/2000/svg" xmlns:xlink="http://www.w3.org/1999/xlink" x="0px" y="0px"
	 width="440.542px" height="440.542px" viewBox="0 0 440.542 440.542" style="enable-background:new 0 0 440.542 440.542;"
	 xml:space="preserve">
<g>
	<path d="M77.883,192.998c-18.659,0-36.176-7.254-49.342-20.426c-18.005-17.997-24.667-44.002-17.995-68.132l33.799,33.794
		c1.082,1.081,2.58,1.65,4.086,1.568l39.171-2.092c2.74-0.144,4.935-2.336,5.079-5.078l2.092-39.177
		c0.079-1.52-0.491-3.01-1.57-4.084l-33.79-33.795c6.047-1.667,12.289-2.51,18.641-2.51c18.701,0,36.279,7.279,49.497,20.497
		c18.911,18.916,25.363,47.496,16.433,72.81c-0.124,0.354-0.278,0.697-0.43,1.042c-0.187,0.426-0.37,0.851-0.525,1.258
		c-3.59,9.181-8.805,17.228-15.493,23.9c-6.145,6.15-13.383,11.069-21.594,14.649c-0.417,0.187-0.837,0.344-1.262,0.504l-0.995,0.38
		C95.451,191.355,86.769,192.998,77.883,192.998C77.889,192.998,77.889,192.998,77.883,192.998z"/>
	<g>
		<path d="M286.188,153.913L62.968,377.145c-0.129,0.393-0.313,0.782-0.544,1.128c-4.955,7.559-3.903,17.695,2.499,24.096
			c3.827,3.831,9.181,5.685,14.449,5.49c3.237-0.205,6.413-1.197,9.171-3.013c0.349-0.231,0.722-0.41,1.102-0.558l1.843-1.847
			c0.071-0.073,0.158-0.147,0.244-0.221l221.062-221.699L286.188,153.913z"/>
		<path d="M207.087,217.279l-57.329-57.329c-0.029,0.061-0.065,0.113-0.091,0.168c-0.15,0.293-0.333,0.575-0.483,0.869
			c-1.011,1.942-2.107,3.816-3.26,5.651c-0.412,0.656-0.848,1.294-1.283,1.935c-1.011,1.496-2.063,2.95-3.171,4.37
			c-0.452,0.585-0.898,1.179-1.373,1.754c-1.569,1.897-3.202,3.745-4.945,5.488c-1.638,1.644-3.365,3.186-5.139,4.678
			c-0.564,0.472-1.16,0.913-1.74,1.37c-1.247,0.989-2.517,1.95-3.821,2.868c-0.693,0.486-1.404,0.948-2.113,1.41
			c-1.281,0.84-2.585,1.64-3.918,2.404c-0.722,0.413-1.441,0.832-2.179,1.223c-0.422,0.226-0.822,0.485-1.247,0.701l57.271,57.271
			L207.087,217.279z"/>
		<path d="M325.507,300.518c-18.705,0-36.284,7.281-49.508,20.505c-5.99,5.989-10.829,13.05-14.368,20.988l-0.446,1.049
			c-0.231,0.541-0.468,1.081-0.66,1.627c-0.122,0.347-0.278,0.672-0.457,0.977c-9.78,25.764-3.581,54.861,15.927,74.375
			c13.224,13.216,30.803,20.503,49.508,20.503l0,0c18.697,0,36.277-7.287,49.5-20.503c13.229-13.229,20.511-30.815,20.511-49.514
			c0-18.697-7.282-36.283-20.511-49.507C361.779,307.799,344.199,300.518,325.507,300.518z M365.921,362.472l-9.438,35.244
			c-0.493,1.854-1.948,3.308-3.802,3.801l-35.232,9.438c-0.457,0.127-0.925,0.189-1.393,0.189c-1.412,0-2.781-0.556-3.799-1.574
			l-25.803-25.795c-1.358-1.355-1.889-3.339-1.39-5.198l9.438-35.233c0.498-1.858,1.947-3.308,3.802-3.801l35.237-9.438
			c1.849-0.494,3.833,0.031,5.193,1.392l25.796,25.784C365.89,358.64,366.419,360.619,365.921,362.472z"/>
		<path d="M287.238,297.448l-37.691-37.696c-11.759,11.779-23.429,23.497-34.78,34.877l38.849,38.847
			c3.938-8.458,9.232-16.08,15.737-22.583C274.66,305.589,280.655,301.082,287.238,297.448z"/>
		<path d="M432.526,125.404L308.692,1.575C307.674,0.56,306.324,0,304.893,0c-1.438,0-2.794,0.56-3.807,1.575l-72.221,72.213
			c-2.09,2.095-2.096,5.504,0,7.602l58.451,58.452c1.418-0.01,2.829,0.483,3.844,1.504l34.472,34.473
			c1.075,1.074,1.581,2.488,1.559,3.898l71.01,71.005c2.025,2.027,5.575,2.027,7.606,0l26.725-26.725L432.526,125.404z"/>
		<polygon points="304.094,349.127 296.261,378.368 317.669,399.775 346.903,391.937 354.735,362.693 333.334,341.295 		"/>
	</g>
</g>
<g>
</g>
<g>
</g>
<g>
</g>
<g>
</g>
<g>
</g>
<g>
</g>
<g>
</g>
<g>
</g>
<g>
</g>
<g>
</g>
<g>
</g>
<g>
</g>
<g>
</g>
<g>
</g>
<g>
</g>
</svg>
